<?xml version="1.0" encoding="UTF-8"?>
<svg xmlns="http://www.w3.org/2000/svg" xmlns:xlink="http://www.w3.org/1999/xlink" width="150px" height="150px" viewBox="0 0 150 150" version="1.1">
<g id="surface1">
<path style=" stroke:none;fill-rule:nonzero;fill:rgb(0%,0%,0%);fill-opacity:1;" d="M 75 5.859375 C 36.796875 5.859375 5.859375 36.796875 5.859375 75 C 5.859375 113.203125 36.796875 144.140625 75 144.140625 C 113.203125 144.140625 144.140625 113.203125 144.140625 75 C 144.140625 36.796875 113.203125 5.859375 75 5.859375 Z M 89.707031 40.839844 L 104.765625 55.898438 L 63.808594 96.503906 L 48.75 81.445312 Z M 45.820312 84.433594 L 60.761719 99.375 L 36.679688 108.925781 Z M 104.296875 121.640625 L 36.855469 121.640625 C 34.746094 121.640625 33.046875 119.941406 33.046875 117.832031 C 33.046875 115.722656 34.746094 114.023438 36.855469 114.023438 L 104.296875 114.023438 C 106.40625 114.023438 108.105469 115.722656 108.105469 117.832031 C 108.105469 119.941406 106.40625 121.640625 104.296875 121.640625 Z M 115.078125 45.292969 L 107.519531 52.792969 L 92.460938 37.734375 L 100.019531 30.175781 C 102.539062 27.65625 106.582031 27.65625 109.042969 30.175781 L 115.078125 36.210938 C 117.597656 38.730469 117.597656 42.773438 115.078125 45.292969 Z M 115.078125 45.292969 "/>
</g>
</svg>
